# xmcd CD database file
# Copyright (C) 1993-1997  Ti Kan
#
# Track frame offsets:
#	182
#	18717
#	36187
#	50290
#	63525
#	78807
#	93912
#	106242
#	116492
#	130965
#	145565
#	163880
#
# Disc length: 2396 seconds
#
# Revision: 1
# Processed by: cddbd v1.4b41PL1 Copyright (c) Steve Scherf et al.
# Submitted via: xmcd 2.1 PL2
#
DISCID=99095a0c
DTITLE=rhett akins - somebody new
DYEAR=1900
DGENRE=
TTITLE0=no match (for that old flame)
TTITLE1=love you back
TTITLE2=somebody knew
TTITLE3=k-i-s-s-i-n-g
TTITLE4=don't get me started
TTITLE5=where angels live
TTITLE6=too much texas
TTITLE7=every cowboy's dream
TTITLE8=carolina line
TTITLE9=I was wrong
TTITLE10=That ain't my truck
TTITLE11=she said yes
EXTD=
EXTT0=
EXTT1=
EXTT2=
EXTT3=
EXTT4=
EXTT5=
EXTT6=
EXTT7=
EXTT8=
EXTT9=
EXTT10=
EXTT11=
PLAYORDER=
